<?xml version="1.0" encoding="UTF-8" standalone="no"?>
<svg
   xmlns:dc="http://purl.org/dc/elements/1.1/"
   xmlns:cc="http://creativecommons.org/ns#"
   xmlns:rdf="http://www.w3.org/1999/02/22-rdf-syntax-ns#"
   xmlns:svg="http://www.w3.org/2000/svg"
   xmlns="http://www.w3.org/2000/svg"
   xmlns:sodipodi="http://sodipodi.sourceforge.net/DTD/sodipodi-0.dtd"
   xmlns:inkscape="http://www.inkscape.org/namespaces/inkscape"
   width="277mm"
   height="222mm"
   viewBox="0 0 277 222"
   version="1.1"
   id="svg8"
   inkscape:version="1.0.2 (e86c8708, 2021-01-15)"
   sodipodi:docname="3.svg">
  <defs
     id="defs2">
    <clipPath
       clipPathUnits="userSpaceOnUse"
       id="clipPath26">
      <path
         d="M 0,762.759 H 813.96 V 0 H 0 Z"
         id="path24" />
    </clipPath>
    <clipPath
       clipPathUnits="userSpaceOnUse"
       id="clipPath34">
      <path
         d="M 212.109,721.305 H 277.74 V 12.1174 h -65.631 z"
         id="path32" />
    </clipPath>
    <clipPath
       clipPathUnits="userSpaceOnUse"
       id="clipPath50">
      <path
         d="M 334.541,683.055 H 813.96 V 653.484 H 334.541 Z"
         id="path48" />
    </clipPath>
    <clipPath
       clipPathUnits="userSpaceOnUse"
       id="clipPath66">
      <path
         d="M 335.531,701.805 H 735.775 V 672.234 H 335.531 Z"
         id="path64" />
    </clipPath>
    <clipPath
       clipPathUnits="userSpaceOnUse"
       id="clipPath82">
      <path
         d="M 32.0944,721.305 H 457.755 V 12.1174 H 32.0944 Z"
         id="path80" />
    </clipPath>
    <clipPath
       clipPathUnits="userSpaceOnUse"
       id="clipPath98">
      <path
         d="M 268.352,726.713 H 358.72 V 697.142 H 268.352 Z"
         id="path96" />
    </clipPath>
    <clipPath
       clipPathUnits="userSpaceOnUse"
       id="clipPath114">
      <path
         d="m 269.06,639.903 h 90.368 V 610.332 H 269.06 Z"
         id="path112" />
    </clipPath>
    <clipPath
       clipPathUnits="userSpaceOnUse"
       id="clipPath130">
      <path
         d="m 269.06,554.959 h 90.368 V 525.388 H 269.06 Z"
         id="path128" />
    </clipPath>
    <clipPath
       clipPathUnits="userSpaceOnUse"
       id="clipPath146">
      <path
         d="M 284.304,487.96 H 396.853 V 458.389 H 284.304 Z"
         id="path144" />
    </clipPath>
    <clipPath
       clipPathUnits="userSpaceOnUse"
       id="clipPath162">
      <path
         d="M 281.855,403.165 H 394.404 V 373.594 H 281.855 Z"
         id="path160" />
    </clipPath>
    <clipPath
       clipPathUnits="userSpaceOnUse"
       id="clipPath178">
      <path
         d="M 289.047,305.655 H 401.596 V 276.084 H 289.047 Z"
         id="path176" />
    </clipPath>
    <clipPath
       clipPathUnits="userSpaceOnUse"
       id="clipPath194">
      <path
         d="M 269.588,222.96 H 382.137 V 193.389 H 269.588 Z"
         id="path192" />
    </clipPath>
    <clipPath
       clipPathUnits="userSpaceOnUse"
       id="clipPath210">
      <path
         d="M 290.487,133.961 H 403.036 V 104.39 H 290.487 Z"
         id="path208" />
    </clipPath>
    <clipPath
       clipPathUnits="userSpaceOnUse"
       id="clipPath226">
      <path
         d="M 277.74,38.2119 H 390.289 V 8.63965 H 277.74 Z"
         id="path224" />
    </clipPath>
    <clipPath
       clipPathUnits="userSpaceOnUse"
       id="clipPath246">
      <path
         d="m 128.571,721.805 h 232.707 v -1 H 128.571 Z"
         id="path244" />
    </clipPath>
    <clipPath
       clipPathUnits="userSpaceOnUse"
       id="clipPath262">
      <path
         d="m 131.493,631.688 h 226.864 v -1 H 131.493 Z"
         id="path260" />
    </clipPath>
    <clipPath
       clipPathUnits="userSpaceOnUse"
       id="clipPath278">
      <path
         d="m 126.216,547.385 h 237.417 v -1 H 126.216 Z"
         id="path276" />
    </clipPath>
    <clipPath
       clipPathUnits="userSpaceOnUse"
       id="clipPath298">
      <path
         d="m 34.486,370.179 h 420.877 v -1 H 34.486 Z"
         id="path296" />
    </clipPath>
    <clipPath
       clipPathUnits="userSpaceOnUse"
       id="clipPath314">
      <path
         d="M 51.6895,280.062 H 438.16 v -1 H 51.6895 Z"
         id="path312" />
    </clipPath>
    <clipPath
       clipPathUnits="userSpaceOnUse"
       id="clipPath330">
      <path
         d="M 65.4261,192.852 H 424.423 v -1 H 65.4261 Z"
         id="path328" />
    </clipPath>
    <clipPath
       clipPathUnits="userSpaceOnUse"
       id="clipPath346">
      <path
         d="M 83.2837,102.734 H 406.565 v -1 H 83.2837 Z"
         id="path344" />
    </clipPath>
    <clipPath
       clipPathUnits="userSpaceOnUse"
       id="clipPath366">
      <path
         d="m 105.781,738.759 h 47.253 v -29.572 h -47.253 z"
         id="path364" />
    </clipPath>
    <clipPath
       clipPathUnits="userSpaceOnUse"
       id="clipPath382">
      <path
         d="m 107.482,648.642 h 50.024 v -29.571 h -50.024 z"
         id="path380" />
    </clipPath>
    <clipPath
       clipPathUnits="userSpaceOnUse"
       id="clipPath398">
      <path
         d="M 93.042,564.339 H 162.5 V 534.768 H 93.042 Z"
         id="path396" />
    </clipPath>
    <clipPath
       clipPathUnits="userSpaceOnUse"
       id="clipPath414">
      <path
         d="M 0,474.343 H 50.0503 V 444.771 H 0 Z"
         id="path412" />
    </clipPath>
    <clipPath
       clipPathUnits="userSpaceOnUse"
       id="clipPath430">
      <path
         d="M 11.707,387.133 H 58.936 V 357.562 H 11.707 Z"
         id="path428" />
    </clipPath>
    <clipPath
       clipPathUnits="userSpaceOnUse"
       id="clipPath446">
      <path
         d="M 25.8413,297.016 H 80.0527 V 267.444 H 25.8413 Z"
         id="path444" />
    </clipPath>
    <clipPath
       clipPathUnits="userSpaceOnUse"
       id="clipPath462">
      <path
         d="m 43.8682,209.806 h 44.458 v -29.572 h -44.458 z"
         id="path460" />
    </clipPath>
    <clipPath
       clipPathUnits="userSpaceOnUse"
       id="clipPath478">
      <path
         d="M 58.0137,119.688 H 109.48 V 90.1172 H 58.0137 Z"
         id="path476" />
    </clipPath>
    <clipPath
       clipPathUnits="userSpaceOnUse"
       id="clipPath494">
      <path
         d="M 58.7515,29.5713 H 117.125 V 0 H 58.7515 Z"
         id="path492" />
    </clipPath>
    <clipPath
       clipPathUnits="userSpaceOnUse"
       id="clipPath510">
      <path
         d="M 363.278,738.759 H 475.827 V 709.187 H 363.278 Z"
         id="path508" />
    </clipPath>
    <clipPath
       clipPathUnits="userSpaceOnUse"
       id="clipPath526">
      <path
         d="M 360.356,648.642 H 472.905 V 619.071 H 360.356 Z"
         id="path524" />
    </clipPath>
    <clipPath
       clipPathUnits="userSpaceOnUse"
       id="clipPath542">
      <path
         d="M 365.633,564.339 H 478.182 V 534.768 H 365.633 Z"
         id="path540" />
    </clipPath>
    <clipPath
       clipPathUnits="userSpaceOnUse"
       id="clipPath558">
      <path
         d="M 464.755,474.343 H 577.303 V 444.771 H 464.755 Z"
         id="path556" />
    </clipPath>
    <clipPath
       clipPathUnits="userSpaceOnUse"
       id="clipPath574">
      <path
         d="M 457.363,387.133 H 569.912 V 357.562 H 457.363 Z"
         id="path572" />
    </clipPath>
    <clipPath
       clipPathUnits="userSpaceOnUse"
       id="clipPath590">
      <path
         d="M 440.16,297.016 H 552.708 V 267.444 H 440.16 Z"
         id="path588" />
    </clipPath>
    <clipPath
       clipPathUnits="userSpaceOnUse"
       id="clipPath606">
      <path
         d="M 426.423,209.806 H 538.972 V 180.234 H 426.423 Z"
         id="path604" />
    </clipPath>
    <clipPath
       clipPathUnits="userSpaceOnUse"
       id="clipPath622">
      <path
         d="m 408.565,119.688 h 112.55 V 90.1172 h -112.55 z"
         id="path620" />
    </clipPath>
    <clipPath
       clipPathUnits="userSpaceOnUse"
       id="clipPath638">
      <path
         d="M 404.205,29.5713 H 516.753 V 0 H 404.205 Z"
         id="path636" />
    </clipPath>
    <clipPath
       clipPathUnits="userSpaceOnUse"
       id="clipPath654">
      <path
         d="M 130.341,762.759 H 483.319 V 733.187 H 130.341 Z"
         id="path652" />
    </clipPath>
    <clipPath
       clipPathUnits="userSpaceOnUse"
       id="clipPath658">
      <path
         d="M 130.341,762.759 H 483.319 V 733.187 H 130.341 Z"
         id="path656" />
    </clipPath>
  </defs>
  <sodipodi:namedview
     id="base"
     pagecolor="#ffffff"
     bordercolor="#666666"
     borderopacity="1.0"
     inkscape:pageopacity="0.0"
     inkscape:pageshadow="2"
     inkscape:zoom="0.49497475"
     inkscape:cx="682.77166"
     inkscape:cy="551.68512"
     inkscape:document-units="mm"
     inkscape:current-layer="layer1"
     inkscape:document-rotation="0"
     showgrid="false"
     inkscape:window-width="972"
     inkscape:window-height="813"
     inkscape:window-x="948"
     inkscape:window-y="88"
     inkscape:window-maximized="0" />
  <metadata
     id="metadata5">
    <rdf:RDF>
      <cc:Work
         rdf:about="">
        <dc:format>image/svg+xml</dc:format>
        <dc:type
           rdf:resource="http://purl.org/dc/dcmitype/StillImage" />
        <dc:title></dc:title>
      </cc:Work>
    </rdf:RDF>
  </metadata>
  <g
     inkscape:label="Layer 1"
     inkscape:groupmode="layer"
     id="layer1">
    <g
       id="g660"
       transform="matrix(0.33975998,0,0,-0.33778578,15.347067,283.17238)" />
    <g
       id="g668"
       transform="matrix(0.2415669,0,0,-0.23735769,-3.4036707,205.01445)">
      <g
         clip-path="url(#clipPath658)"
         id="g666">
        <text
           transform="matrix(1,0,0,-1,130.3408,741.3047)"
           style="font-variant:normal;font-weight:normal;font-stretch:normal;font-size:25px;font-family:Arial;-inkscape-font-specification:ArialMT;writing-mode:lr-tb;fill:#000000;fill-opacity:1;fill-rule:nonzero;stroke:none"
           id="text664"><tspan
             x="0 18.049999 31.950001 38.900002 45.849998 51.400002 65.300003 72.25 77.800003 91.699997 105.6 119.5 127.825 134.77499 141.72501 155.625 163.95 176.45 190.35001 197.3 211.2 225.10001 232.05 239 257.04999 270.95001 284.85001 291.79999 298.75 312.64999 319.60001 325.14999 339.04999"
             y="0"
             sodipodi:role="line"
             id="tspan662"
             style="font-style:normal;font-variant:normal;font-weight:bold;font-stretch:normal;font-family:Arial;-inkscape-font-specification:'Arial Bold'">Not in labor force but want a job</tspan></text>
      </g>
    </g>
    <path
       d="m 75.121126,36.209108 c 0.102667,7.129988 0.205576,14.259976 0.205576,21.389963 0,6.669989 -0.8851,13.339978 -0.8851,20.009967 0,7.120282 4.310994,14.240779 4.350856,21.361268 0.03838,6.899994 0.01953,13.799974 0.05799,20.699964 0.03937,7.12999 0.179001,14.25998 0.179001,21.38997 0,6.89999 -2.006694,13.79997 -2.006694,20.69996 0,7.12999 0.652952,14.25997 0.652952,21.38996 0,7.12999 -0.489893,14.25998 -0.979547,21.38996 H 65.508696 C 65.018799,197.41014 64.5289,190.28015 64.5289,183.15016 c 0,-7.12999 0.653197,-14.25997 0.653197,-21.38996 0,-6.89999 -2.006938,-13.79997 -2.006938,-20.69996 0,-7.12999 0.139626,-14.25998 0.179242,-21.38997 0.03817,-6.89999 0.01933,-13.79997 0.05798,-20.699964 0.03962,-7.120489 4.35062,-14.240986 4.35062,-21.361268 0,-6.669989 -0.885102,-13.339978 -0.885102,-20.009967 0,-7.129987 0.102908,-14.259975 0.205574,-21.389963 z"
       style="opacity:0.699997;fill:#000000;fill-opacity:1;fill-rule:nonzero;stroke:none;stroke-width:0.239453"
       id="path36" />
    <path
       d="m 98.001689,36.209108 c -0.352932,7.129988 -0.705856,14.259976 -0.705856,21.389963 0,6.669989 0.424918,13.339978 1.274741,20.009967 0.907086,7.120282 23.944596,14.240779 23.944596,21.361268 0,6.899994 -0.82398,13.799974 -1.78566,20.699964 -0.9938,7.12999 -2.89373,14.25998 -4.15591,21.38997 -1.22137,6.89999 -2.07168,13.79997 -3.31818,20.69996 -1.28803,7.12999 -3.61166,14.25997 -4.31389,21.38996 -0.70224,7.12999 -0.87786,14.25998 -1.05348,21.38996 H 34.316443 c -0.175618,-7.12998 -0.350996,-14.25997 -1.053473,-21.38996 -0.702235,-7.12999 -3.025625,-14.25997 -4.313659,-21.38996 -1.246486,-6.89999 -2.097043,-13.79997 -3.318406,-20.69996 -1.261945,-7.12999 -3.161869,-14.25998 -4.155675,-21.38997 -0.961919,-6.89999 -1.785662,-13.79997 -1.785662,-20.699964 0,-7.120489 23.037511,-14.240986 23.944594,-21.361268 0.849832,-6.669989 1.274507,-13.339978 1.274507,-20.009967 0,-7.129987 -0.352929,-14.259975 -0.705858,-21.389963 z"
       style="opacity:0.699997;fill:#d5fff6;fill-opacity:1;fill-rule:nonzero;stroke:none;stroke-width:0.239453"
       id="path84" />
    <text
       transform="scale(1.0088278,0.99124944)"
       style="font-variant:normal;font-weight:normal;font-stretch:normal;font-size:5.98633px;font-family:Arial;-inkscape-font-specification:ArialMT;writing-mode:lr-tb;fill:#000000;fill-opacity:1;fill-rule:nonzero;stroke:none;stroke-width:0.239453"
       id="text102"
       x="209.07469"
       y="40.370987"><tspan
         x="209.07469 212.40311 215.73149 219.05989 220.72411 224.05249 227.38089"
         y="40.370987"
         sodipodi:role="line"
         id="tspan100"
         style="stroke-width:0.239453">763,000</tspan></text>
    <text
       transform="scale(1.0088278,0.99124944)"
       style="font-variant:normal;font-weight:normal;font-stretch:normal;font-size:5.98633px;font-family:Arial;-inkscape-font-specification:ArialMT;writing-mode:lr-tb;fill:#000000;fill-opacity:1;fill-rule:nonzero;stroke:none;stroke-width:0.239453"
       id="text118"
       x="209.24425"
       y="61.157818"><tspan
         x="209.24425 212.57262 215.90103 219.22942 220.89362 224.222 227.55042"
         y="61.157818"
         sodipodi:role="line"
         id="tspan116"
         style="stroke-width:0.239453">802,000</tspan></text>
    <text
       transform="scale(1.0088278,0.99124944)"
       style="font-variant:normal;font-weight:normal;font-stretch:normal;font-size:5.98633px;font-family:Arial;-inkscape-font-specification:ArialMT;writing-mode:lr-tb;fill:#000000;fill-opacity:1;fill-rule:nonzero;stroke:none;stroke-width:0.239453"
       id="text134"
       x="209.24425"
       y="81.497749"><tspan
         x="209.24425 212.57262 215.90103 219.22942 220.89362 224.222 227.55042"
         y="81.497749"
         sodipodi:role="line"
         id="tspan132"
         style="stroke-width:0.239453">634,000</tspan></text>
    <text
       transform="scale(1.0088278,0.99124944)"
       style="font-style:normal;font-variant:normal;font-weight:bold;font-stretch:normal;font-size:5.98633px;font-family:ArialMT;-inkscape-font-specification:'ArialMT Bold';writing-mode:lr-tb;fill:#121212;fill-opacity:1;fill-rule:nonzero;stroke:none;stroke-width:0.239453"
       id="text150"
       x="213.29637"
       y="101.17576"><tspan
         x="213.29637 216.62479 218.28899 221.61737 223.28157 228.26817 229.59714 230.92612 232.25508 233.58401 236.91243"
         y="101.17576"
         sodipodi:role="line"
         id="tspan148"
         style="font-style:normal;font-variant:normal;font-weight:bold;font-stretch:normal;font-family:ArialMT;-inkscape-font-specification:'ArialMT Bold';stroke-width:0.239453">1.5 million</tspan></text>
    <text
       transform="scale(1.0088278,0.99124944)"
       style="font-variant:normal;font-weight:normal;font-stretch:normal;font-size:5.98633px;font-family:Arial;-inkscape-font-specification:ArialMT;writing-mode:lr-tb;fill:#000000;fill-opacity:1;fill-rule:nonzero;stroke:none;stroke-width:0.239453"
       id="text166"
       x="212.30826"
       y="117.84556"><tspan
         x="212.30826 215.63664 217.30084 220.62926 222.29343 227.28008 228.60901 229.93797 231.26695 232.59592 235.9243"
         y="117.84556"
         sodipodi:role="line"
         id="tspan164"
         style="stroke-width:0.239453">1.5 million</tspan></text>
    <text
       transform="scale(1.0088278,0.99124944)"
       style="font-variant:normal;font-weight:normal;font-stretch:normal;font-size:5.98633px;font-family:Arial;-inkscape-font-specification:ArialMT;writing-mode:lr-tb;fill:#000000;fill-opacity:1;fill-rule:nonzero;stroke:none;stroke-width:0.239453"
       id="text182"
       x="214.03026"
       y="141.19455"><tspan
         x="214.03026 217.35864 219.02284 222.35126 224.01546 229.00206 230.33101 231.66 232.98897 234.3179 237.6463"
         y="141.19455"
         sodipodi:role="line"
         id="tspan180"
         style="stroke-width:0.239453">1.5 million</tspan></text>
    <text
       transform="scale(1.0088278,0.99124944)"
       style="font-variant:normal;font-weight:normal;font-stretch:normal;font-size:5.98633px;font-family:Arial;-inkscape-font-specification:ArialMT;writing-mode:lr-tb;fill:#000000;fill-opacity:1;fill-rule:nonzero;stroke:none;stroke-width:0.239453"
       id="text198"
       x="209.37073"
       y="160.99619"><tspan
         x="209.37073 212.69913 214.36334 217.69173 219.35593 224.34253 225.67151 227.00047 228.32944 229.65839 232.9868"
         y="160.99619"
         sodipodi:role="line"
         id="tspan196"
         style="stroke-width:0.239453">1.1 million</tspan></text>
    <text
       transform="scale(1.0088278,0.99124944)"
       style="font-variant:normal;font-weight:normal;font-stretch:normal;font-size:5.98633px;font-family:Arial;-inkscape-font-specification:ArialMT;writing-mode:lr-tb;fill:#000000;fill-opacity:1;fill-rule:nonzero;stroke:none;stroke-width:0.239453"
       id="text214"
       x="214.37505"
       y="182.30728"><tspan
         x="214.37505 217.70343 219.36763 222.69604 224.36024 229.34685 230.67581 232.00476 233.33376 234.66272 237.9911"
         y="182.30728"
         sodipodi:role="line"
         id="tspan212"
         style="stroke-width:0.239453">1.2 million</tspan></text>
    <path
       d="m 209.27998,36.209108 c 0.10267,7.129988 0.20558,14.259976 0.20558,21.389963 0,6.669989 -0.8851,13.339978 -0.8851,20.009967 0,7.120282 4.311,14.240779 4.35085,21.361268 0.0384,6.899994 0.0195,13.799974 0.058,20.699964 0.0394,7.12999 0.17901,14.25998 0.17901,21.38997 0,6.89999 -2.0067,13.79997 -2.0067,20.69996 0,7.12999 0.65295,14.25997 0.65295,21.38996 0,7.12999 -0.48989,14.25998 -0.97954,21.38996 H 199.6676 c -0.4899,-7.12998 -0.9798,-14.25997 -0.9798,-21.38996 0,-7.12999 0.65296,-14.25997 0.65296,-21.38996 0,-6.89999 -2.0067,-13.79997 -2.0067,-20.69996 0,-7.12999 0.13963,-14.25998 0.17925,-21.38997 0.0382,-6.89999 0.0193,-13.79997 0.0578,-20.699964 0.0399,-7.120489 4.35086,-14.240986 4.35086,-21.361268 0,-6.669989 -0.8851,-13.339978 -0.8851,-20.009967 0,-7.129987 0.10291,-14.259975 0.20558,-21.389963 z"
       style="fill:#aaffee;stroke:#ffffff;stroke-width:0.239453;stroke-linecap:butt;stroke-linejoin:miter;stroke-miterlimit:4;stroke-dasharray:0.478906, 0.478906;stroke-dashoffset:0;stroke-opacity:1"
       id="path238" />
    <text
       transform="scale(1.0088278,0.99124944)"
       style="font-variant:normal;font-weight:normal;font-stretch:normal;font-size:5.98633px;font-family:Arial;-inkscape-font-specification:ArialMT;writing-mode:lr-tb;fill:#121212;fill-opacity:1;fill-rule:nonzero;stroke:none;stroke-width:0.239453"
       id="text230"
       x="211.32271"
       y="205.2346"><tspan
         x="211.32271 214.65109 216.31531 219.64371 221.30789 226.29451 227.62347 228.95244 230.28142 231.61038 234.93877"
         y="205.2346"
         sodipodi:role="line"
         id="tspan228"
         style="stroke-width:0.239453">1.1 million</tspan></text>
    <path
       d="M 99.209514,36.209108 H 42.99497"
       style="opacity:0.800003;fill:none;stroke:#000000;stroke-width:0.0875409;stroke-linecap:butt;stroke-linejoin:miter;stroke-miterlimit:4;stroke-dasharray:none;stroke-opacity:1"
       id="path248" />
    <path
       d="M 98.503688,57.599 H 43.700855"
       style="opacity:0.800003;fill:none;stroke:#000000;stroke-width:0.0875409;stroke-linecap:butt;stroke-linejoin:miter;stroke-miterlimit:4;stroke-dasharray:none;stroke-opacity:1"
       id="path264" />
    <path
       d="M 123.72291,98.970306 H 18.481631"
       style="fill:none;stroke:#121212;stroke-width:0.772644;stroke-linecap:round;stroke-linejoin:miter;stroke-miterlimit:4;stroke-dasharray:none;stroke-opacity:1"
       id="path290" />
    <path
       d="M 99.778414,77.609015 H 42.426324"
       style="opacity:0.800003;fill:none;stroke:#000000;stroke-width:0.0875409;stroke-linecap:butt;stroke-linejoin:miter;stroke-miterlimit:4;stroke-dasharray:none;stroke-opacity:1"
       id="path280" />
    <path
       d="M 121.93734,119.67027 H 20.267391"
       style="opacity:0.800003;fill:none;stroke:#000000;stroke-width:0.0875409;stroke-linecap:butt;stroke-linejoin:miter;stroke-miterlimit:4;stroke-dasharray:none;stroke-opacity:1"
       id="path300" />
    <path
       d="M 117.78152,141.06028 H 24.423166"
       style="opacity:0.800003;fill:none;stroke:#000000;stroke-width:0.0875409;stroke-linecap:butt;stroke-linejoin:miter;stroke-miterlimit:4;stroke-dasharray:none;stroke-opacity:1"
       id="path316" />
    <path
       d="M 114.46326,161.76022 H 27.741473"
       style="opacity:0.800003;fill:none;stroke:#000000;stroke-width:0.0875409;stroke-linecap:butt;stroke-linejoin:miter;stroke-miterlimit:4;stroke-dasharray:none;stroke-opacity:1"
       id="path332" />
    <path
       d="M 109.09596,204.54024 H 33.108675"
       style="fill:none;stroke:#121212;stroke-width:0.772644;stroke-linecap:round;stroke-linejoin:miter;stroke-miterlimit:4;stroke-dasharray:none;stroke-opacity:1"
       id="path358" />
    <path
       d="M 110.14938,183.15023 H 32.055157"
       style="opacity:0.800003;fill:none;stroke:#000000;stroke-width:0.0875409;stroke-linecap:butt;stroke-linejoin:miter;stroke-miterlimit:4;stroke-dasharray:none;stroke-opacity:1"
       id="path348" />
    <text
       transform="scale(1.0088278,0.99124944)"
       style="font-variant:normal;font-weight:normal;font-stretch:normal;font-size:5.98633px;font-family:Arial;-inkscape-font-specification:ArialMT;writing-mode:lr-tb;fill:#000000;fill-opacity:1;fill-rule:nonzero;stroke:none;stroke-width:0.239453"
       id="text370"
       x="30.075853"
       y="37.486561"><tspan
         x="30.075853 33.069012 36.397411 39.725811"
         y="37.486561"
         sodipodi:role="line"
         id="tspan368"
         style="stroke-width:0.239453">Jan.</tspan></text>
    <text
       transform="scale(1.0088278,0.99124944)"
       style="font-variant:normal;font-weight:normal;font-stretch:normal;font-size:5.98633px;font-family:Arial;-inkscape-font-specification:ArialMT;writing-mode:lr-tb;fill:#000000;fill-opacity:1;fill-rule:nonzero;stroke:none;stroke-width:0.239453"
       id="text386"
       x="30.483065"
       y="59.065399"><tspan
         x="30.483065 34.140709 37.469109 40.797508"
         y="59.065399"
         sodipodi:role="line"
         id="tspan384"
         style="stroke-width:0.239453">Feb.</tspan></text>
    <text
       transform="scale(1.0088278,0.99124944)"
       style="font-variant:normal;font-weight:normal;font-stretch:normal;font-size:5.98633px;font-family:Arial;-inkscape-font-specification:ArialMT;writing-mode:lr-tb;fill:#000000;fill-opacity:1;fill-rule:nonzero;stroke:none;stroke-width:0.239453"
       id="text402"
       x="27.025507"
       y="79.251945"><tspan
         x="27.025507 32.012119 35.340511 37.333961 40.327126"
         y="79.251945"
         sodipodi:role="line"
         id="tspan400"
         style="stroke-width:0.239453">March</tspan></text>
    <text
       transform="scale(1.0088278,0.99124944)"
       style="font-style:normal;font-variant:normal;font-weight:bold;font-stretch:normal;font-size:5.98633px;font-family:ArialMT;-inkscape-font-specification:'ArialMT Bold';writing-mode:lr-tb;fill:#121212;fill-opacity:1;fill-rule:nonzero;stroke:none;stroke-width:0.239453"
       id="text418"
       x="4.7554288"
       y="100.8018"><tspan
         x="4.7554288 8.7483015 12.076694 14.070141 15.399104"
         y="100.8018"
         sodipodi:role="line"
         id="tspan416"
         style="font-style:normal;font-variant:normal;font-weight:bold;font-stretch:normal;font-family:ArialMT;-inkscape-font-specification:'ArialMT Bold';stroke-width:0.239453">April</tspan></text>
    <text
       transform="scale(1.0088278,0.99124944)"
       style="font-variant:normal;font-weight:normal;font-stretch:normal;font-size:5.98633px;font-family:Arial;-inkscape-font-specification:ArialMT;writing-mode:lr-tb;fill:#000000;fill-opacity:1;fill-rule:nonzero;stroke:none;stroke-width:0.239453"
       id="text434"
       x="7.5495782"
       y="121.68452"><tspan
         x="7.5495782 12.53618 15.864575"
         y="121.68452"
         sodipodi:role="line"
         id="tspan432"
         style="stroke-width:0.239453">May</tspan></text>
    <text
       transform="scale(1.0088278,0.99124944)"
       style="font-variant:normal;font-weight:normal;font-stretch:normal;font-size:5.98633px;font-family:Arial;-inkscape-font-specification:ArialMT;writing-mode:lr-tb;fill:#000000;fill-opacity:1;fill-rule:nonzero;stroke:none;stroke-width:0.239453"
       id="text450"
       x="10.934073"
       y="143.26335"><tspan
         x="10.934073 13.927235 17.255632 20.584042"
         y="143.26335"
         sodipodi:role="line"
         id="tspan448"
         style="stroke-width:0.239453">June</tspan></text>
    <text
       transform="scale(1.0088278,0.99124944)"
       style="font-variant:normal;font-weight:normal;font-stretch:normal;font-size:5.98633px;font-family:Arial;-inkscape-font-specification:ArialMT;writing-mode:lr-tb;fill:#000000;fill-opacity:1;fill-rule:nonzero;stroke:none;stroke-width:0.239453"
       id="text466"
       x="15.250667"
       y="164.14603"><tspan
         x="15.250667 18.243834 21.572245 22.901217"
         y="164.14603"
         sodipodi:role="line"
         id="tspan464"
         style="stroke-width:0.239453">July</tspan></text>
    <text
       transform="scale(1.0088278,0.99124944)"
       style="font-variant:normal;font-weight:normal;font-stretch:normal;font-size:5.98633px;font-family:Arial;-inkscape-font-specification:ArialMT;writing-mode:lr-tb;fill:#000000;fill-opacity:1;fill-rule:nonzero;stroke:none;stroke-width:0.239453"
       id="text482"
       x="18.646978"
       y="185.72488"><tspan
         x="18.646978 22.639874 25.968275 29.296671"
         y="185.72488"
         sodipodi:role="line"
         id="tspan480"
         style="stroke-width:0.239453">Aug.</tspan></text>
    <text
       transform="scale(1.0088278,0.99124944)"
       style="font-variant:normal;font-weight:normal;font-stretch:normal;font-size:5.98633px;font-family:Arial;-inkscape-font-specification:ArialMT;writing-mode:lr-tb;fill:#121212;fill-opacity:1;fill-rule:nonzero;stroke:none;stroke-width:0.239453"
       id="text498"
       x="18.814526"
       y="207.3036"><tspan
         x="18.814526 22.807421 26.135818 29.464216 31.128414"
         y="207.3036"
         sodipodi:role="line"
         id="tspan496"
         style="stroke-width:0.239453">Sept.</tspan></text>
    <text
       transform="scale(1.0088278,0.99124944)"
       style="font-variant:normal;font-weight:normal;font-stretch:normal;font-size:5.98633px;font-family:Arial;-inkscape-font-specification:ArialMT;writing-mode:lr-tb;fill:#000000;fill-opacity:1;fill-rule:nonzero;stroke:none;stroke-width:0.239453"
       id="text514"
       x="98.820282"
       y="37.486561"><tspan
         x="98.820282 102.14868 103.81288 107.14128 108.80547 113.79208 115.12104 116.45001 117.77897 119.10794 122.43633"
         y="37.486561"
         sodipodi:role="line"
         id="tspan512"
         style="stroke-width:0.239453">5.1 million</tspan></text>
    <text
       transform="scale(1.0088278,0.99124944)"
       style="font-variant:normal;font-weight:normal;font-stretch:normal;font-size:5.98633px;font-family:Arial;-inkscape-font-specification:ArialMT;writing-mode:lr-tb;fill:#000000;fill-opacity:1;fill-rule:nonzero;stroke:none;stroke-width:0.239453"
       id="text530"
       x="98.120636"
       y="59.065399"><tspan
         x="98.120636 101.44903 103.11322 106.44162 108.10582 113.09243 114.42139 115.75035 117.07932 118.40829 121.73669"
         y="59.065399"
         sodipodi:role="line"
         id="tspan528"
         style="stroke-width:0.239453">5.0 million</tspan></text>
    <text
       transform="scale(1.0088278,0.99124944)"
       style="font-variant:normal;font-weight:normal;font-stretch:normal;font-size:5.98633px;font-family:Arial;-inkscape-font-specification:ArialMT;writing-mode:lr-tb;fill:#000000;fill-opacity:1;fill-rule:nonzero;stroke:none;stroke-width:0.239453"
       id="text546"
       x="99.384193"
       y="79.251945"><tspan
         x="99.384193 102.71259 104.37679 107.70518 109.36938 114.356 115.68496 117.01392 118.3429 119.67185 123.00025"
         y="79.251945"
         sodipodi:role="line"
         id="tspan544"
         style="stroke-width:0.239453">5.2 million</tspan></text>
    <text
       transform="scale(1.0088278,0.99124944)"
       style="font-style:normal;font-variant:normal;font-weight:bold;font-stretch:normal;font-size:5.98633px;font-family:ArialMT;-inkscape-font-specification:'ArialMT Bold';writing-mode:lr-tb;fill:#121212;fill-opacity:1;fill-rule:nonzero;stroke:none;stroke-width:0.239453"
       id="text562"
       x="123.11916"
       y="100.80179"><tspan
         x="123.11916 126.44756 128.11176 131.44016 133.10435 138.09096 139.41994 140.74889 142.07785 143.40683 146.73523"
         y="100.80179"
         sodipodi:role="line"
         id="tspan560"
         style="font-style:normal;font-variant:normal;font-weight:bold;font-stretch:normal;font-family:ArialMT;-inkscape-font-specification:'ArialMT Bold';stroke-width:0.239453">9.8 million</tspan></text>
    <text
       transform="scale(1.0088278,0.99124944)"
       style="font-variant:normal;font-weight:normal;font-stretch:normal;font-size:5.98633px;font-family:Arial;-inkscape-font-specification:ArialMT;writing-mode:lr-tb;fill:#000000;fill-opacity:1;fill-rule:nonzero;stroke:none;stroke-width:0.239453"
       id="text578"
       x="121.34922"
       y="121.68452"><tspan
         x="121.34922 124.67761 126.34182 129.67021 131.33441 136.32101 137.64999 138.97896 140.30791 141.63687 144.96527"
         y="121.68452"
         sodipodi:role="line"
         id="tspan576"
         style="stroke-width:0.239453">9.4 million</tspan></text>
    <text
       transform="scale(1.0088278,0.99124944)"
       style="font-variant:normal;font-weight:normal;font-stretch:normal;font-size:5.98633px;font-family:Arial;-inkscape-font-specification:ArialMT;writing-mode:lr-tb;fill:#000000;fill-opacity:1;fill-rule:nonzero;stroke:none;stroke-width:0.239453"
       id="text594"
       x="117.22977"
       y="143.26335"><tspan
         x="117.22977 120.55817 122.22237 125.55077 127.21496 132.20158 133.53053 134.8595 136.18848 137.51743 140.84583"
         y="143.26335"
         sodipodi:role="line"
         id="tspan592"
         style="stroke-width:0.239453">8.6 million</tspan></text>
    <text
       transform="scale(1.0088278,0.99124944)"
       style="font-variant:normal;font-weight:normal;font-stretch:normal;font-size:5.98633px;font-family:Arial;-inkscape-font-specification:ArialMT;writing-mode:lr-tb;fill:#000000;fill-opacity:1;fill-rule:nonzero;stroke:none;stroke-width:0.239453"
       id="text610"
       x="113.94044"
       y="164.14603"><tspan
         x="113.94044 117.26884 118.93304 122.26144 123.92564 128.91226 130.24121 131.57018 132.89915 134.2281 137.5565"
         y="164.14603"
         sodipodi:role="line"
         id="tspan608"
         style="stroke-width:0.239453">8.0 million</tspan></text>
    <text
       transform="scale(1.0088278,0.99124944)"
       style="font-variant:normal;font-weight:normal;font-stretch:normal;font-size:5.98633px;font-family:Arial;-inkscape-font-specification:ArialMT;writing-mode:lr-tb;fill:#000000;fill-opacity:1;fill-rule:nonzero;stroke:none;stroke-width:0.239453"
       id="text626"
       x="109.66442"
       y="185.72487"><tspan
         x="109.66442 112.99281 114.65702 117.98542 119.64961 124.63622 125.96518 127.29415 128.62311 129.95207 133.28047"
         y="185.72487"
         sodipodi:role="line"
         id="tspan624"
         style="stroke-width:0.239453">7.2 million</tspan></text>
    <text
       transform="scale(1.0088278,0.99124944)"
       style="font-variant:normal;font-weight:normal;font-stretch:normal;font-size:5.98633px;font-family:Arial;-inkscape-font-specification:ArialMT;writing-mode:lr-tb;fill:#121212;fill-opacity:1;fill-rule:nonzero;stroke:none;stroke-width:0.239453"
       id="text642"
       x="108.62021"
       y="207.3036"><tspan
         x="108.62021 111.94861 113.6128 116.94119 118.6054 123.59201 124.92098 126.24993 127.5789 128.90787 132.23627"
         y="207.3036"
         sodipodi:role="line"
         id="tspan640"
         style="stroke-width:0.239453">7.0 million</tspan></text>
    <text
       xml:space="preserve"
       style="font-weight:bold;font-size:5.37087px;line-height:1.25;font-family:sans-serif;-inkscape-font-specification:'sans-serif Bold';letter-spacing:0px;word-spacing:0px;stroke-width:0.201407"
       x="12.537789"
       y="217.88779"
       id="text2159"
       transform="scale(1.0062439,0.99379487)"><tspan
         sodipodi:role="line"
         id="tspan2157"
         x="12.537789"
         y="217.88779"
         style="font-style:normal;font-variant:normal;font-weight:normal;font-stretch:normal;font-size:5.37087px;font-family:sans-serif;-inkscape-font-specification:sans-serif;fill:#898989;fill-opacity:1;stroke-width:0.201407">Source: New York Times</tspan></text>
    <text
       xml:space="preserve"
       style="font-weight:bold;font-size:5.37087px;line-height:1.25;font-family:sans-serif;-inkscape-font-specification:'sans-serif Bold';letter-spacing:0px;word-spacing:0px;stroke-width:0.201407"
       x="214.04193"
       y="25.458754"
       id="text2992"
       transform="scale(1.0062439,0.99379487)"><tspan
         sodipodi:role="line"
         id="tspan2990"
         x="214.04193"
         y="25.458754"
         style="font-size:5.37087px;text-align:center;text-anchor:middle;stroke-width:0.201407">Not look for job</tspan><tspan
         sodipodi:role="line"
         x="214.04193"
         y="32.17234"
         style="font-size:5.37087px;text-align:center;text-anchor:middle;stroke-width:0.201407"
         id="tspan2994">due to family or transportation issues</tspan></text>
    <path
       d="m 207.76874,36.556618 h -7.49056"
       style="opacity:0.800003;fill:none;stroke:#000000;stroke-width:0.0874084;stroke-linecap:butt;stroke-linejoin:miter;stroke-miterlimit:4;stroke-dasharray:none;stroke-opacity:1"
       id="path248-0" />
    <path
       d="m 208.7007,57.946511 h -7.30718"
       style="opacity:0.800003;fill:none;stroke:#000000;stroke-width:0.0874366;stroke-linecap:butt;stroke-linejoin:miter;stroke-miterlimit:4;stroke-dasharray:none;stroke-opacity:1"
       id="path264-0" />
    <path
       d="M 211.52268,99.31782 H 198.23382"
       style="fill:none;stroke:#121212;stroke-width:0.77036;stroke-linecap:round;stroke-linejoin:miter;stroke-miterlimit:4;stroke-dasharray:none;stroke-opacity:1"
       id="path290-5" />
    <path
       d="M 208.75943,77.956527 H 201.7691"
       style="opacity:0.800003;fill:none;stroke:#000000;stroke-width:0.0835977;stroke-linecap:butt;stroke-linejoin:miter;stroke-miterlimit:4;stroke-dasharray:none;stroke-opacity:1"
       id="path280-6" />
    <path
       d="M 212.48098,120.01779 H 197.61342"
       style="opacity:0.800003;fill:none;stroke:#000000;stroke-width:0.0915678;stroke-linecap:butt;stroke-linejoin:miter;stroke-miterlimit:4;stroke-dasharray:none;stroke-opacity:1"
       id="path300-7" />
    <path
       d="M 211.60073,141.4078 H 197.2653"
       style="opacity:0.800003;fill:none;stroke:#000000;stroke-width:0.0938317;stroke-linecap:butt;stroke-linejoin:miter;stroke-miterlimit:4;stroke-dasharray:none;stroke-opacity:1"
       id="path316-8" />
    <path
       d="M 210.73914,162.10772 H 199.76472"
       style="opacity:0.800003;fill:none;stroke:#000000;stroke-width:0.0851819;stroke-linecap:butt;stroke-linejoin:miter;stroke-miterlimit:4;stroke-dasharray:none;stroke-opacity:1"
       id="path332-0" />
    <path
       d="M 210.40398,204.88775 H 199.35115"
       style="fill:none;stroke:#121212;stroke-width:0.77645;stroke-linecap:round;stroke-linejoin:miter;stroke-miterlimit:4;stroke-dasharray:none;stroke-opacity:1"
       id="path358-6" />
    <path
       d="M 211.74805,183.49774 H 198.34616"
       style="opacity:0.800003;fill:none;stroke:#000000;stroke-width:0.099196;stroke-linecap:butt;stroke-linejoin:miter;stroke-miterlimit:4;stroke-dasharray:none;stroke-opacity:1"
       id="path348-5" />
    <text
       xml:space="preserve"
       style="font-weight:bold;font-size:7.51921px;line-height:1.25;font-family:sans-serif;-inkscape-font-specification:'sans-serif Bold';letter-spacing:0px;word-spacing:0px;stroke-width:0.201407"
       x="70.024506"
       y="107.22617"
       id="text3066"
       transform="scale(1.0062439,0.99379487)"><tspan
         sodipodi:role="line"
         x="70.024506"
         y="107.22617"
         style="font-style:normal;font-variant:normal;font-weight:normal;font-stretch:normal;font-size:5.37087px;font-family:sans-serif;-inkscape-font-specification:sans-serif;text-align:center;text-anchor:middle;stroke-width:0.201407"
         id="tspan3070">Number of people who are out of </tspan><tspan
         sodipodi:role="line"
         x="70.024506"
         y="116.62518"
         style="font-style:normal;font-variant:normal;font-weight:normal;font-stretch:normal;font-size:5.37087px;font-family:sans-serif;-inkscape-font-specification:sans-serif;text-align:center;text-anchor:middle;stroke-width:0.201407"
         id="tspan3068">labor force but look for job </tspan><tspan
         sodipodi:role="line"
         x="70.024506"
         y="126.0242"
         style="font-style:normal;font-variant:normal;font-weight:normal;font-stretch:normal;font-size:5.37087px;font-family:sans-serif;-inkscape-font-specification:sans-serif;text-align:center;text-anchor:middle;stroke-width:0.201407"
         id="tspan3072">reached the highest</tspan></text>
    <text
       xml:space="preserve"
       style="font-weight:bold;font-size:6.98212px;line-height:1.25;font-family:sans-serif;-inkscape-font-specification:'sans-serif Bold';letter-spacing:0px;word-spacing:0px;stroke-width:0.201407"
       x="15.011928"
       y="14.423261"
       id="text3088"
       transform="scale(1.0062439,0.99379487)"><tspan
         sodipodi:role="line"
         id="tspan3086"
         x="15.011928"
         y="14.423261"
         style="font-size:6.98212px;stroke-width:0.201407">Population not in labor force but look for job v.s. not look for job</tspan></text>
  </g>
</svg>
